# xmcd
#
# Track frame offsets: 
#        150
#        15066
#        30587
#        42181
#        52599
#        66215
#        77461
#        87568
#        96998
#        106689
#        121383
#        131687
#        142845
#        158321
#        170085
#        181461
#        201564
#        214672
#        225528
#        244503
#
# Disc length: 3399 seconds
#
# Revision: 2
# Processed by: cddbd v1.5.2PL0 Copyright (c) Steve Scherf et al.
# Submitted via: ExactAudioCopy v0.99pb5
#
DISCID=f60d4514
DTITLE=Various Artist - Das groﬂe Country-Festival - CD 1
DYEAR=2006
DGENRE=Country
TTITLE0=Anne Murray - There goes my everything
TTITLE1=Karen O'Donnell - I know what it's all about now, Mama
TTITLE2=Roy Baham - The arms of a satisfied woman
TTITLE3=Freddy Quinn - Yellow rose of Texas
TTITLE4=Shelby Mason - Tenderly
TTITLE5=Ferlin Husky - My home town
TTITLE6=Dave Dudley - Truck drivin' son-of-a-gun
TTITLE7=George Kent - Running with the wind
TTITLE8=Jonny Hill - Help me make it through the night
TTITLE9=Jeannie C. Riley - Harper Valley P.T.A. (Neuaufnahme)
TTITLE10=Faron Young - Alone with you
TTITLE11=Patsy Cline - Just out of reach
TTITLE12=Gene Parsons - Way out there
TTITLE13=Oak Ridge Boys - Time has made a change in me
TTITLE14=Tammy Wynette - D.I.V.O.R.C.E (Live)
TTITLE15=Charlie Rich - Big boss man (Live)
TTITLE16=Kathy Mattea - Ball and chain (Live)
TTITLE17=Guy Mitchell - Singing the blues (Neuaufnahme)
TTITLE18=Tanya Tucker - Delta dawn (Live)
TTITLE19=Staff Sergeant Barry Sadler - The ballad of the green berets 
TTITLE19=(Neuaufnahme)
EXTD=YEAR: 2006
EXTT0=
EXTT1=
EXTT2=
EXTT3=
EXTT4=
EXTT5=
EXTT6=
EXTT7=
EXTT8=
EXTT9=
EXTT10=
EXTT11=
EXTT12=
EXTT13=
EXTT14=
EXTT15=
EXTT16=
EXTT17=
EXTT18=
EXTT19=
PLAYORDER=
